inDegrees=no
num_controls=7
num_derivatives=13
num_iterations=120
num_multipliers=7
num_parameters=0
num_slacks=7
num_states=26
objective=0.497086
objective_accelerations=0.032257
objective_balance=0.003258
objective_effort=0.035025
objective_height=0.421062
objective_ligament=0.005483
solver_duration=1435.067225
status=Solve_Succeeded
success=true
DataType=double
version=3
OpenSimVersion=4.5
endheader
time	/jointset/ground_pelvis/pelvis_tilt/value	/jointset/ground_pelvis/pelvis_tx/value	/jointset/ground_pelvis/pelvis_ty/value	/jointset/hip_r/hip_flexion_r/value	/jointset/hip_r/hip_adduction_r/value	/jointset/hip_r/hip_rotation_r/value	/jointset/back/lumbar_extension/value	/jointset/patellofemoral_r/patellar_flexion_r/value	/jointset/knee_r/knee_flexion_r/value	/jointset/knee_r/knee_adduction_r/value	/jointset/knee_r/knee_rotation_r/value	/jointset/ankle_r/ankle_angle_r/value	/jointset/subtalar_r/subtalar_angle_r/value	/jointset/ground_pelvis/pelvis_tilt/speed	/jointset/ground_pelvis/pelvis_tx/speed	/jointset/ground_pelvis/pelvis_ty/speed	/jointset/hip_r/hip_flexion_r/speed	/jointset/hip_r/hip_adduction_r/speed	/jointset/hip_r/hip_rotation_r/speed	/jointset/back/lumbar_extension/speed	/jointset/patellofemoral_r/patellar_flexion_r/speed	/jointset/knee_r/knee_flexion_r/speed	/jointset/knee_r/knee_adduction_r/speed	/jointset/knee_r/knee_rotation_r/speed	/jointset/ankle_r/ankle_angle_r/speed	/jointset/subtalar_r/subtalar_angle_r/speed	/forceset/tau_hip_flexion_r	/forceset/tau_hip_adduction_r	/forceset/tau_hip_rotation_r	/forceset/tau_knee_flexion_r	/forceset/tau_ankle_angle_r	/forceset/tau_subtalar_angle_r	/forceset/tau_lumbar_extension	lambda_cid13_p0	lambda_cid14_p0	lambda_cid14_p1	lambda_cid14_p2	lambda_cid14_p3	lambda_cid14_p4	lambda_cid14_p5	/jointset/ground_pelvis/pelvis_tilt/accel	/jointset/ground_pelvis/pelvis_tx/accel	/jointset/ground_pelvis/pelvis_ty/accel	/jointset/hip_r/hip_flexion_r/accel	/jointset/hip_r/hip_adduction_r/accel	/jointset/hip_r/hip_rotation_r/accel	/jointset/back/lumbar_extension/accel	/jointset/patellofemoral_r/patellar_flexion_r/accel	/jointset/knee_r/knee_flexion_r/accel	/jointset/knee_r/knee_adduction_r/accel	/jointset/knee_r/knee_rotation_r/accel	/jointset/ankle_r/ankle_angle_r/accel	/jointset/subtalar_r/subtalar_angle_r/accel	gamma_cid13_p0	gamma_cid14_p0	gamma_cid14_p1	gamma_cid14_p2	gamma_cid14_p3	gamma_cid14_p4	gamma_cid14_p5
1	-0.1835326238415554	0.03856063589685354	0.7499817376089201	1.098040366633209	-0.2364480093320539	-0.07150787003786804	-0.4362815590183774	1.156941061527497	1.156941061528381	-0.02911011881436261	0.1745300709124052	0.4363094802077809	0.1035841047395234	0.0004697114547312282	0.004416957688784961	0.01278447029181008	-0.03717519299402169	0.00175296147862004	-0.009700072363781252	0.004928629424756071	-0.04555095750954594	-0.04555095750954577	0.0008325625534087479	-0.00016892894781624	-0.01014483928344538	-0.0007198197176195196	-0.2001993290298841	0.02992894800118325	0.01335964081115645	-0.4431258058004038	-0.04351747906698329	0.004829118216780719	0.2452894541817372	-3.137674830654907	-61.27072373617386	-8.986753016767311	2.299316936271465	20.73920950819983	-771.4762759151017	54.88155316083247	0.9494869101601021	0.002349723046456965	1.241839400518444	-3.89001411229804	0.1233493263308448	-0.5851951564199568	0.2875958912375397	-4.348523336801797	-4.348523336801794	0.4865880005782745	-0.005736830454928909	-1.595225165196716	-0.3956058440178084	1.140113357483074e-09	-2.638571073815515e-09	3.615960395291147e-09	7.923930767073038e-09	6.871900109519064e-09	-5.562797552755032e-09	2.927504613655305e-09
1.01	-0.1834815118228323	0.0386050987863223	0.7501715296452092	1.097475126386738	-0.2364244317122097	-0.07163355203652082	-0.4362157168109661	1.156268321968655	1.156268321969025	-0.02907679404270892	0.1745280378748781	0.4361284667832108	0.1035569861668905	0.009705781133411933	0.004494970677602203	0.02517211352540715	-0.07585592929272858	0.002959496194973661	-0.01543572236195434	0.008390769459812864	-0.08900876578073154	-0.08900876578073297	0.005841354206338244	-0.0002352338757300963	-0.02604020711249901	-0.004701531812044316	-0.2008833090008443	0.03002115278554489	0.01336161336800793	-0.4426983999767412	-0.04377931350631231	0.004841015314751505	0.2460446486725779	-3.164860995574659	-61.36601135116715	-8.992390483770402	2.293499542437276	20.56298388619844	-771.8704244346367	54.83793623955242	0.903631102576442	0.01343092872902511	1.236951916208959	-3.854563756025952	0.1188486472312534	-0.5676579986285402	0.398166669867501	-4.346181661152611	-4.34618166115328	0.5093698528525703	-0.006707154808692399	-1.584047564202264	-0.3990963428626855	1.794961422814974e-09	-1.77804261960041e-09	7.136599751759211e-09	1.586046560996938e-08	6.364034655342467e-09	-6.750487091681785e-09	5.609786964136172e-09
1.02	-0.1833394462861594	0.03865092257406363	0.7504851431401214	1.09652358670379	-0.2363888801246916	-0.07181657215047775	-0.4361107244811467	1.155160649909317	1.155160649909182	-0.02899311233358555	0.1745254158219402	0.435789028685861	0.1034901219831608	0.01866041504626547	0.004689137343299042	0.037548762016472	-0.114435080286206	0.00414775502909738	-0.0211676954446485	0.01275865390402335	-0.132537457606944	-0.1325374576069487	0.01090395006738407	-0.0002867320376084571	-0.04182977383925963	-0.008668941934785016	-0.2015672889717859	0.0301133575699195	0.01336358592477961	-0.4422709941530649	-0.04404114794562519	0.004852912412753834	0.2467998431634351	-3.20993486422775	-61.47156531497416	-8.994728499414906	2.281334134709822	20.40834166792175	-772.4286259907371	54.81934048957589	0.8931997569948302	0.02558045842210866	1.239640452012007	-3.869697051251982	0.1196941498848866	-0.5844597733241698	0.4687447730682996	-4.362700047807318	-4.362700047807656	0.4973488422015489	-0.002775477247831085	-1.574064944738589	-0.3927454496811237	2.670162963421959e-09	-1.182757943320218e-09	1.013735922305354e-08	2.385253724287142e-08	6.354748695338126e-09	-8.936929180252509e-09	8.301789452724406e-09
1.03	-0.1831090815344707	0.03869927754929862	0.7509224451030569	1.095186627224277	-0.2363415502927027	-0.0720568586356394	-0.4359577504425533	1.15361736526821	1.153617365268506	-0.02885848829566789	0.1745223488287236	0.4352922252384058	0.10338364507132	0.02737966485334026	0.005002214227179516	0.04990725258098198	-0.1529513876399349	0.005314204225263164	-0.02688516224849989	0.01796742418896519	-0.1761282717082588	-0.1761282717082574	0.01603422884330125	-0.0003255199076631602	-0.05751305119627591	-0.01262447429459207	-0.201995727545742	0.03017427232467147	0.01337626055596408	-0.4416705157833075	-0.04404637630077445	0.004804529693247425	0.2473368710524352	-3.273273690300237	-61.47694066795757	-9.008986959119637	2.274817355895569	20.19822739230855	-772.6340994120138	54.7461594357916	0.8563581843864528	0.03722605123511772	1.233294420210166	-3.841782504811903	0.1145250920827807	-0.5647216256979228	0.5666337124116295	-4.358592970476434	-4.358592970475661	0.5228742986648469	-0.004251487920827235	-1.562780430949192	-0.3966562318593726	3.54761300887869e-09	-5.901798362026287e-10	1.313281379756038e-08	3.184517557771229e-08	6.350550281192689e-09	-1.113356262137063e-08	1.099389112639537e-08
1.04	-0.1827925101663573	0.03875137424294382	0.7514832001839469	1.093464667685732	-0.2362826750113067	-0.0723541860871014	-0.4357487505898625	1.151637908310245	1.15163790831098	-0.02867216008941041	0.1745189297476314	0.4346391247574283	0.1032376730153249	0.03590173833332373	0.005437481025339412	0.06223938560738251	-0.1914350920888166	0.006456844925468341	-0.03257588872366141	0.02396381672213066	-0.2197719209768888	-0.2197719209768803	0.02124478375436406	-0.0003571496191814009	-0.07308918054393804	-0.01656797076355489	-0.2024241661196921	0.03023518707943243	0.01338893518707444	-0.4410700374135386	-0.04405160465590889	0.004756146973764932	0.2478738989414399	-3.355402553900016	-61.49254654225058	-9.019817467188552	2.26179246832597	20.00773406290867	-773.004558622576	54.6985093566995	0.8537644915767598	0.05001844127772688	1.234368944390127	-3.863176470282387	0.1149324506927803	-0.5791117075861992	0.6262692227130864	-4.373267081270489	-4.373267081270621	0.5134040692306774	-0.001343845540538965	-1.552635342868224	-0.390338271512408	4.411994984765687e-09	3.327138193336257e-10	1.592632576510089e-08	4.048426862671628e-08	5.867377309827015e-09	-1.291340034337663e-08	1.353162965715238e-08
